<svg width="216" height="14" viewBox="0 0 216 14" fill="none" xmlns="http://www.w3.org/2000/svg">
<path d="M9.184 9.684C10.178 8.69 10.668 7.5 10.668 6.1C10.668 4.7 10.178 3.51 9.184 2.516C8.19 1.522 7 1.032 5.6 1.032C4.2 1.032 3.01 1.522 2.016 2.516C1.022 3.51 0.532 4.7 0.532 6.1C0.532 7.5 1.022 8.69 2.016 9.684C3.01 10.678 4.2 11.168 5.6 11.168C7 11.168 8.19 10.678 9.184 9.684ZM5.6 10.748C4.326 10.748 3.234 10.3 2.324 9.39C1.428 8.48 0.98 7.388 0.98 6.1C0.98 4.812 1.428 3.72 2.324 2.81C3.234 1.9 4.326 1.452 5.6 1.452C6.874 1.452 7.952 1.9 8.848 2.81C9.758 3.72 10.206 4.812 10.206 6.1C10.206 7.388 9.758 8.48 8.848 9.39C7.952 10.3 6.874 10.748 5.6 10.748ZM5.642 8.802C6.636 8.802 7.518 8.284 7.966 7.486L7 6.912C6.776 7.416 6.23 7.71 5.628 7.71C4.676 7.71 4.032 6.982 4.032 6.1C4.032 5.218 4.676 4.49 5.628 4.49C6.286 4.49 6.748 4.756 6.986 5.274L7.952 4.714C7.504 3.888 6.636 3.398 5.642 3.398C4.872 3.398 4.228 3.664 3.696 4.196C3.164 4.714 2.898 5.358 2.898 6.1C2.898 6.842 3.164 7.486 3.696 8.018C4.228 8.536 4.872 8.802 5.642 8.802ZM21.5156 11V9.74H17.0776L19.5836 7.248C20.7456 6.086 21.3336 5.008 21.3336 4.014C21.3336 3.104 21.0256 2.376 20.4236 1.83C19.8216 1.284 19.1076 1.018 18.2816 1.018C16.9516 1.018 15.8036 1.676 15.1876 2.95L16.2796 3.594C16.6996 2.712 17.3716 2.278 18.2956 2.278C19.2616 2.278 20.0316 2.922 20.0316 4.028C20.0316 4.686 19.5696 5.484 18.6456 6.408L15.1876 9.936V11H21.5156ZM29.1257 9.796C29.7837 8.872 30.1197 7.64 30.1197 6.1C30.1197 4.56 29.7837 3.328 29.1257 2.404C28.4677 1.48 27.5297 1.018 26.3397 1.018C25.1497 1.018 24.2117 1.48 23.5537 2.404C22.8957 3.328 22.5597 4.56 22.5597 6.1C22.5597 7.64 22.8957 8.872 23.5537 9.796C24.2117 10.72 25.1497 11.182 26.3397 11.182C27.5297 11.182 28.4677 10.72 29.1257 9.796ZM23.8617 6.1C23.8617 3.65 24.7577 2.278 26.3397 2.278C27.9217 2.278 28.8317 3.678 28.8317 6.1C28.8317 8.522 27.9217 9.908 26.3397 9.908C24.7577 9.908 23.8617 8.522 23.8617 6.1ZM37.4023 11V9.74H32.9643L35.4703 7.248C36.6323 6.086 37.2203 5.008 37.2203 4.014C37.2203 3.104 36.9123 2.376 36.3103 1.83C35.7083 1.284 34.9943 1.018 34.1683 1.018C32.8383 1.018 31.6903 1.676 31.0743 2.95L32.1663 3.594C32.5863 2.712 33.2583 2.278 34.1823 2.278C35.1483 2.278 35.9183 2.922 35.9183 4.028C35.9183 4.686 35.4563 5.484 34.5323 6.408L31.0743 9.936V11H37.4023ZM44.7851 11V9.74H40.3471L42.8531 7.248C44.0151 6.086 44.6031 5.008 44.6031 4.014C44.6031 3.104 44.2951 2.376 43.6931 1.83C43.0911 1.284 42.3771 1.018 41.5511 1.018C40.2211 1.018 39.0731 1.676 38.4571 2.95L39.5491 3.594C39.9691 2.712 40.6411 2.278 41.5651 2.278C42.5311 2.278 43.3011 2.922 43.3011 4.028C43.3011 4.686 42.8391 5.484 41.9151 6.408L38.4571 9.936V11H44.7851ZM57.5859 1.2L54.4779 6.38L51.3559 1.2H49.8859V11H51.1879V3.356L54.3939 8.676H54.5619L57.7679 3.342V11H59.0559V1.2H57.5859ZM66.9336 10.118C67.6476 9.404 68.0116 8.536 68.0116 7.5C68.0116 6.464 67.6476 5.596 66.9336 4.882C66.2196 4.168 65.3376 3.818 64.3156 3.818C63.2936 3.818 62.4116 4.168 61.6976 4.882C60.9836 5.596 60.6336 6.464 60.6336 7.5C60.6336 8.536 60.9836 9.404 61.6976 10.118C62.4116 10.832 63.2936 11.182 64.3156 11.182C65.3376 11.182 66.2196 10.832 66.9336 10.118ZM64.3156 9.992C63.6296 9.992 63.0416 9.754 62.5656 9.278C62.0896 8.802 61.8516 8.214 61.8516 7.5C61.8516 6.786 62.0896 6.198 62.5656 5.722C63.0416 5.246 63.6296 5.008 64.3156 5.008C65.0156 5.008 65.6036 5.246 66.0796 5.722C66.5556 6.198 66.7936 6.786 66.7936 7.5C66.7936 8.214 66.5556 8.802 66.0796 9.278C65.6036 9.754 65.0156 9.992 64.3156 9.992ZM72.9334 3.818C71.9114 3.818 71.1554 4.21 70.6654 5.008V4H69.4474V11H70.6654V7.29C70.6654 5.722 71.4774 4.98 72.6954 4.98C73.7734 4.98 74.4314 5.638 74.4314 6.772V11H75.6494V6.702C75.6494 4.924 74.5714 3.818 72.9334 3.818ZM77.9658 3.132C78.4138 3.132 78.7778 2.768 78.7778 2.32C78.7778 1.872 78.4138 1.494 77.9658 1.494C77.5038 1.494 77.1398 1.872 77.1398 2.32C77.1398 2.768 77.5038 3.132 77.9658 3.132ZM78.5678 11V4H77.3498V11H78.5678ZM84.234 4H82.372V2.04L81.154 2.404V4H79.768V5.176H81.154V8.97C81.154 10.706 82.106 11.28 84.234 11V9.908C82.988 9.964 82.372 10.048 82.372 8.97V5.176H84.234V4ZM91.625 10.118C92.339 9.404 92.703 8.536 92.703 7.5C92.703 6.464 92.339 5.596 91.625 4.882C90.911 4.168 90.029 3.818 89.007 3.818C87.985 3.818 87.103 4.168 86.389 4.882C85.675 5.596 85.325 6.464 85.325 7.5C85.325 8.536 85.675 9.404 86.389 10.118C87.103 10.832 87.985 11.182 89.007 11.182C90.029 11.182 90.911 10.832 91.625 10.118ZM89.007 9.992C88.321 9.992 87.733 9.754 87.257 9.278C86.781 8.802 86.543 8.214 86.543 7.5C86.543 6.786 86.781 6.198 87.257 5.722C87.733 5.246 88.321 5.008 89.007 5.008C89.707 5.008 90.295 5.246 90.771 5.722C91.247 6.198 91.485 6.786 91.485 7.5C91.485 8.214 91.247 8.802 90.771 9.278C90.295 9.754 89.707 9.992 89.007 9.992ZM94.3483 11.154C94.8663 11.154 95.2583 10.748 95.2583 10.244C95.2583 9.74 94.8663 9.334 94.3483 9.334C93.8443 9.334 93.4383 9.74 93.4383 10.244C93.4383 10.748 93.8443 11.154 94.3483 11.154ZM108.449 11L104.795 1.2H103.325L99.6706 11H101.057L101.855 8.802H106.265L107.063 11H108.449ZM104.053 2.754L105.817 7.584H102.303L104.053 2.754ZM110.697 11V0.78H109.479V11H110.697ZM113.773 11V0.78H112.555V11H113.773ZM120.349 4H119.131V11H120.349V7.29C120.349 6.52 120.559 5.974 120.993 5.624C121.427 5.274 121.931 5.12 122.533 5.148V3.874C121.483 3.874 120.755 4.308 120.349 5.176V4ZM124.341 3.132C124.789 3.132 125.153 2.768 125.153 2.32C125.153 1.872 124.789 1.494 124.341 1.494C123.879 1.494 123.515 1.872 123.515 2.32C123.515 2.768 123.879 3.132 124.341 3.132ZM124.943 11V4H123.725V11H124.943ZM132.611 5.204C132.009 4.28 131.127 3.818 129.979 3.818C128.985 3.818 128.131 4.168 127.445 4.882C126.759 5.582 126.409 6.436 126.409 7.458C126.409 8.48 126.759 9.334 127.445 10.048C128.131 10.762 128.985 11.112 129.979 11.112C131.113 11.112 131.995 10.65 132.611 9.712V10.706C132.611 12.036 131.729 12.848 130.273 12.848C129.139 12.848 128.369 12.456 127.991 11.672L126.927 12.274C127.501 13.38 128.677 13.982 130.245 13.982C131.225 13.982 132.065 13.688 132.765 13.114C133.465 12.54 133.815 11.742 133.815 10.706V4H132.611V5.204ZM132.611 7.458C132.611 8.172 132.373 8.76 131.897 9.236C131.421 9.712 130.833 9.95 130.119 9.95C129.405 9.95 128.817 9.712 128.341 9.236C127.865 8.76 127.627 8.172 127.627 7.458C127.627 6.758 127.865 6.17 128.341 5.694C128.817 5.218 129.405 4.98 130.119 4.98C130.833 4.98 131.421 5.218 131.897 5.694C132.373 6.17 132.611 6.758 132.611 7.458ZM139.146 3.818C138.124 3.818 137.368 4.21 136.878 5.008V1.2H135.66V11H136.878V7.29C136.878 5.722 137.69 4.98 138.908 4.98C139.986 4.98 140.644 5.638 140.644 6.772V11H141.862V6.702C141.862 4.924 140.784 3.818 139.146 3.818ZM147.371 4H145.509V2.04L144.291 2.404V4H142.905V5.176H144.291V8.97C144.291 10.706 145.243 11.28 147.371 11V9.908C146.125 9.964 145.509 10.048 145.509 8.97V5.176H147.371V4ZM149.521 5.89C149.521 5.288 150.081 4.952 150.767 4.952C151.509 4.952 152.013 5.246 152.265 5.848L153.287 5.274C152.839 4.364 151.901 3.818 150.767 3.818C150.053 3.818 149.465 4.014 148.989 4.406C148.527 4.798 148.289 5.302 148.289 5.904C148.289 7.388 149.717 7.752 150.823 8.046C151.593 8.228 152.209 8.536 152.209 9.082C152.209 9.74 151.621 10.034 150.823 10.034C149.969 10.034 149.311 9.614 149.087 8.942L148.037 9.544C148.443 10.538 149.465 11.182 150.823 11.182C151.593 11.182 152.209 10.986 152.699 10.608C153.189 10.23 153.441 9.712 153.441 9.082C153.455 7.584 151.999 7.178 150.907 6.94C150.137 6.73 149.521 6.436 149.521 5.89ZM159.601 4H158.383V11H159.601V7.29C159.601 6.52 159.811 5.974 160.245 5.624C160.679 5.274 161.183 5.12 161.785 5.148V3.874C160.735 3.874 160.007 4.308 159.601 5.176V4ZM169.697 8.06C169.725 7.878 169.739 7.696 169.739 7.514C169.739 6.492 169.417 5.624 168.759 4.91C168.115 4.182 167.275 3.818 166.253 3.818C165.175 3.818 164.293 4.168 163.607 4.868C162.921 5.568 162.585 6.45 162.585 7.5C162.585 8.564 162.935 9.446 163.621 10.146C164.321 10.832 165.231 11.182 166.337 11.182C167.709 11.182 168.731 10.65 169.417 9.6L168.381 9.012C167.961 9.698 167.289 10.034 166.365 10.034C165.035 10.034 164.069 9.306 163.831 8.06H169.697ZM166.253 4.966C167.373 4.966 168.297 5.666 168.507 6.996H163.831C164.041 5.764 164.951 4.966 166.253 4.966ZM171.915 5.89C171.915 5.288 172.475 4.952 173.161 4.952C173.903 4.952 174.407 5.246 174.659 5.848L175.681 5.274C175.233 4.364 174.295 3.818 173.161 3.818C172.447 3.818 171.859 4.014 171.383 4.406C170.921 4.798 170.683 5.302 170.683 5.904C170.683 7.388 172.111 7.752 173.217 8.046C173.987 8.228 174.603 8.536 174.603 9.082C174.603 9.74 174.015 10.034 173.217 10.034C172.363 10.034 171.705 9.614 171.481 8.942L170.431 9.544C170.837 10.538 171.859 11.182 173.217 11.182C173.987 11.182 174.603 10.986 175.093 10.608C175.583 10.23 175.835 9.712 175.835 9.082C175.849 7.584 174.393 7.178 173.301 6.94C172.531 6.73 171.915 6.436 171.915 5.89ZM183.998 8.06C184.026 7.878 184.04 7.696 184.04 7.514C184.04 6.492 183.718 5.624 183.06 4.91C182.416 4.182 181.576 3.818 180.554 3.818C179.476 3.818 178.594 4.168 177.908 4.868C177.222 5.568 176.886 6.45 176.886 7.5C176.886 8.564 177.236 9.446 177.922 10.146C178.622 10.832 179.532 11.182 180.638 11.182C182.01 11.182 183.032 10.65 183.718 9.6L182.682 9.012C182.262 9.698 181.59 10.034 180.666 10.034C179.336 10.034 178.37 9.306 178.132 8.06H183.998ZM180.554 4.966C181.674 4.966 182.598 5.666 182.808 6.996H178.132C178.342 5.764 179.252 4.966 180.554 4.966ZM186.658 4H185.44V11H186.658V7.29C186.658 6.52 186.868 5.974 187.302 5.624C187.736 5.274 188.24 5.12 188.842 5.148V3.874C187.792 3.874 187.064 4.308 186.658 5.176V4ZM192.735 9.698L190.537 4H189.221L192.021 11H193.449L196.249 4H194.933L192.735 9.698ZM203.999 8.06C204.027 7.878 204.041 7.696 204.041 7.514C204.041 6.492 203.719 5.624 203.061 4.91C202.417 4.182 201.577 3.818 200.555 3.818C199.477 3.818 198.595 4.168 197.909 4.868C197.223 5.568 196.887 6.45 196.887 7.5C196.887 8.564 197.237 9.446 197.923 10.146C198.623 10.832 199.533 11.182 200.639 11.182C202.011 11.182 203.033 10.65 203.719 9.6L202.683 9.012C202.263 9.698 201.591 10.034 200.667 10.034C199.337 10.034 198.371 9.306 198.133 8.06H203.999ZM200.555 4.966C201.675 4.966 202.599 5.666 202.809 6.996H198.133C198.343 5.764 199.253 4.966 200.555 4.966ZM211.238 5.204C210.636 4.28 209.754 3.818 208.592 3.818C207.612 3.818 206.772 4.182 206.086 4.896C205.4 5.61 205.05 6.478 205.05 7.5C205.05 8.522 205.4 9.404 206.086 10.118C206.772 10.832 207.612 11.182 208.592 11.182C209.754 11.182 210.636 10.72 211.238 9.796V11H212.456V1.2H211.238V5.204ZM208.746 10.006C208.046 10.006 207.458 9.768 206.982 9.292C206.506 8.802 206.268 8.214 206.268 7.5C206.268 6.786 206.506 6.198 206.982 5.722C207.458 5.232 208.046 4.994 208.746 4.994C209.46 4.994 210.048 5.232 210.524 5.722C211 6.198 211.238 6.786 211.238 7.5C211.238 8.214 211 8.802 210.524 9.292C210.048 9.768 209.46 10.006 208.746 10.006ZM215.071 11.154C215.589 11.154 215.981 10.748 215.981 10.244C215.981 9.74 215.589 9.334 215.071 9.334C214.567 9.334 214.161 9.74 214.161 10.244C214.161 10.748 214.567 11.154 215.071 11.154Z" fill="#667479"/>
</svg>
